<svg xmlns="http://www.w3.org/2000/svg" width="512" height="512" viewBox="0 0 512 512" preserveAspectRatio="xMidYMid meet">
  <g transform="translate(0.8 0.9)">
    <g transform="translate(0 32)">
      <path
        d="m246.3 328.1-17.8 41.2c-6.4 14.8-26.9 14.8-33.3 0l-17.8-41.2c-14.9-34.2-41.8-61.4-75.3-76.3l-48.8-21.6c-14.7-6.5-14.7-27.9 0-34.4l47.2-21c34.4-15.3 61.7-43.5 76.4-78.8l18-43.7c6.3-15.2 27.3-15.2 33.6 0l18 43.7c14.7 35.3 42 63.6 76.4 78.8l47.2 21c14.7 6.5 14.7 27.9 0 34.4l-48.8 21.6c-33.5 14.8-60.4 42.1-75.3 76.2z"
        fill="#2f86bd"
        transform="translate(0 35)" />
      <path
        d="m402.2 449.3-5.3 12.2c-3.5 7.9-14.4 7.9-17.9 0l-5.3-12.2c-8.4-19.3-23.6-34.6-42.4-43l-15.4-6.9c-7.9-3.5-7.9-14.9 0-18.4l14.5-6.5c19.4-8.6 34.8-24.5 43.1-44.5l5.4-13.1c3.4-8.1 14.6-8.1 18 0l5.4 13.1c8.3 19.9 23.7 35.8 43.1 44.5l14.5 6.5c7.9 3.5 7.9 14.9 0 18.4l-15.4 6.9c-19 8.3-34.1 23.7-42.5 43z"
        fill="#2f86bd"
        transform="matrix(0.95 0 0 0.95 22 -278)" />
    </g>
  </g>
</svg>
